<svg xmlns="http://www.w3.org/2000/svg" viewBox="0 0 388.76 421.22"><defs><style>.cls-1{opacity:0.3;}.cls-2{fill:#e76650;}.cls-3{fill:#fff;}.cls-4{fill:#efcac4;}.cls-5{fill:#fbe4d3;}.cls-6{fill:#3c2a34;}.cls-7{fill:#fffaef;}.cls-8{fill:#707173;}.cls-9{fill:#199ff9;}.cls-10{fill:#f8e2d2;}.cls-11{fill:#ee3a3d;}.cls-12{fill:#fff9ef;}</style></defs><g id="Layer_2" data-name="Layer 2"><g id="OBJECT"><g class="cls-1"><ellipse class="cls-2" cx="189.26" cy="411.62" rx="156.84" ry="9.6"/></g><path class="cls-3" d="M136.86,82.83V63.08H101.07V53.79L138.72.34H147V53.79h11.14v9.29H147V82.83Zm0-29V16.6L111,53.79Z"/><path class="cls-3" d="M168.48,42.15q0-14.64,3-23.55t8.95-13.76Q186.38,0,195.38,0A24.4,24.4,0,0,1,207,2.67a22.33,22.33,0,0,1,8.27,7.71,41.62,41.62,0,0,1,5.12,12.27q1.86,7.23,1.86,19.5,0,14.51-3,23.43t-8.91,13.79q-5.94,4.86-15,4.86-11.92,0-18.74-8.55Q168.48,65.39,168.48,42.15Zm10.41,0q0,20.31,4.76,27t11.73,6.73q7,0,11.73-6.76t4.76-27q0-20.37-4.76-27.07t-11.84-6.7a13,13,0,0,0-11.14,5.91Q178.9,21.84,178.89,42.15Z"/><path class="cls-3" d="M265,82.83V63.08H229.25V53.79L266.9.34h8.27V53.79h11.14v9.29H275.17V82.83Zm0-29V16.6L239.21,53.79Z"/><path class="cls-3" d="M19.38,111.22V100.35H15.32V98.9h9.77v1.45H21v10.87Z"/><path class="cls-3" d="M26.57,111.22V98.9h1.51v4.42a3.38,3.38,0,0,1,2.67-1.23,3.58,3.58,0,0,1,1.72.39,2.38,2.38,0,0,1,1.05,1.08,5,5,0,0,1,.32,2v5.66H32.32v-5.66a2.34,2.34,0,0,0-.49-1.65,1.84,1.84,0,0,0-1.39-.51,2.35,2.35,0,0,0-1.26.35,1.93,1.93,0,0,0-.85.94,4.33,4.33,0,0,0-.25,1.65v4.88Z"/><path class="cls-3" d="M42.25,108.35l1.56.19a3.86,3.86,0,0,1-1.37,2.13,4.15,4.15,0,0,1-2.55.75,4.11,4.11,0,0,1-3.11-1.2,4.77,4.77,0,0,1-1.15-3.39,4.93,4.93,0,0,1,1.16-3.49,3.94,3.94,0,0,1,3-1.25,3.83,3.83,0,0,1,2.93,1.22,4.89,4.89,0,0,1,1.13,3.43c0,.09,0,.23,0,.4H37.2A3.41,3.41,0,0,0,38,109.4a2.48,2.48,0,0,0,1.86.78,2.31,2.31,0,0,0,1.42-.44A2.88,2.88,0,0,0,42.25,108.35Zm-5-2.45h5a2.94,2.94,0,0,0-.57-1.69,2.31,2.31,0,0,0-1.87-.87,2.37,2.37,0,0,0-1.75.7A2.71,2.71,0,0,0,37.28,105.9Z"/><path class="cls-3" d="M50.68,111.22V98.9h4.65A10.92,10.92,0,0,1,57.2,99a3.76,3.76,0,0,1,1.53.57,3.14,3.14,0,0,1,1,1.19,4,4,0,0,1-.62,4.34c-.67.73-1.87,1.09-3.62,1.09H52.31v5Zm1.63-6.46H55.5a3.38,3.38,0,0,0,2.24-.59,2.1,2.1,0,0,0,.67-1.66,2.24,2.24,0,0,0-.39-1.32,1.88,1.88,0,0,0-1-.73,7.27,7.27,0,0,0-1.53-.11H52.31Z"/><path class="cls-3" d="M67.79,110.12a5.63,5.63,0,0,1-1.62,1,4.75,4.75,0,0,1-1.66.29,3.23,3.23,0,0,1-2.26-.72,2.36,2.36,0,0,1-.79-1.83,2.53,2.53,0,0,1,.29-1.2,2.45,2.45,0,0,1,.79-.87,3.82,3.82,0,0,1,1.08-.5,12.59,12.59,0,0,1,1.35-.22,14.42,14.42,0,0,0,2.7-.52v-.4a1.68,1.68,0,0,0-.42-1.3,2.57,2.57,0,0,0-1.73-.51,2.65,2.65,0,0,0-1.57.37A2.27,2.27,0,0,0,63.2,105l-1.48-.2a3.59,3.59,0,0,1,.66-1.53,2.89,2.89,0,0,1,1.34-.9,5.91,5.91,0,0,1,2-.32,5.38,5.38,0,0,1,1.86.27,2.55,2.55,0,0,1,1.05.68,2.39,2.39,0,0,1,.47,1,8.73,8.73,0,0,1,.07,1.39v2a22,22,0,0,0,.1,2.67,3.51,3.51,0,0,0,.38,1.07H68.09A3.47,3.47,0,0,1,67.79,110.12Zm-.12-3.38a10.52,10.52,0,0,1-2.48.57,5.68,5.68,0,0,0-1.31.3,1.35,1.35,0,0,0-.6.5,1.33,1.33,0,0,0,.25,1.72,2,2,0,0,0,1.34.41,3.05,3.05,0,0,0,1.55-.39,2.28,2.28,0,0,0,1-1,3.68,3.68,0,0,0,.25-1.51Z"/><path class="cls-3" d="M71.26,112l1.47.22a1.38,1.38,0,0,0,.52,1,2.48,2.48,0,0,0,1.53.42,2.69,2.69,0,0,0,1.62-.42,2,2,0,0,0,.78-1.18,9.94,9.94,0,0,0,.11-1.94,3.11,3.11,0,0,1-2.47,1.17A3.35,3.35,0,0,1,72,109.89a5.1,5.1,0,0,1-1-3.18,5.91,5.91,0,0,1,.46-2.36,3.74,3.74,0,0,1,1.34-1.67,3.64,3.64,0,0,1,2.06-.59,3.2,3.2,0,0,1,2.61,1.28V102.3h1.39V110A7.36,7.36,0,0,1,78.4,113a3.13,3.13,0,0,1-1.34,1.38,4.76,4.76,0,0,1-2.27.5,4.28,4.28,0,0,1-2.58-.72A2.45,2.45,0,0,1,71.26,112Zm1.25-5.36a3.9,3.9,0,0,0,.7,2.56A2.22,2.22,0,0,0,75,110a2.26,2.26,0,0,0,1.75-.8,3.77,3.77,0,0,0,.7-2.52,3.68,3.68,0,0,0-.72-2.47,2.24,2.24,0,0,0-1.76-.83,2.17,2.17,0,0,0-1.71.82A3.61,3.61,0,0,0,72.51,106.6Z"/><path class="cls-3" d="M87.22,108.35l1.56.19a3.8,3.8,0,0,1-1.37,2.13,4.66,4.66,0,0,1-5.66-.45,4.76,4.76,0,0,1-1.14-3.39,4.89,4.89,0,0,1,1.16-3.49,3.91,3.91,0,0,1,3-1.25,3.83,3.83,0,0,1,2.93,1.22,4.89,4.89,0,0,1,1.13,3.43c0,.09,0,.23,0,.4H82.17A3.41,3.41,0,0,0,83,109.4a2.48,2.48,0,0,0,1.87.78,2.35,2.35,0,0,0,1.42-.44A2.93,2.93,0,0,0,87.22,108.35Zm-5-2.45h5a3,3,0,0,0-.58-1.69,2.31,2.31,0,0,0-1.87-.87A2.38,2.38,0,0,0,83,104,2.75,2.75,0,0,0,82.25,105.9Z"/><path class="cls-3" d="M98.81,111.22V106l-4.74-7.1h2l2.43,3.72c.45.69.86,1.38,1.25,2.08.37-.64.82-1.37,1.35-2.18l2.38-3.62h1.9l-4.92,7.1v5.22Z"/><path class="cls-3" d="M104.49,106.76a4.62,4.62,0,0,1,1.37-3.67,4.13,4.13,0,0,1,2.81-1,4,4,0,0,1,3,1.21,4.57,4.57,0,0,1,1.17,3.33,5.83,5.83,0,0,1-.52,2.71,3.71,3.71,0,0,1-1.5,1.54,4.44,4.44,0,0,1-2.16.54,4,4,0,0,1-3-1.2A4.8,4.8,0,0,1,104.49,106.76Zm1.55,0a3.76,3.76,0,0,0,.75,2.56,2.48,2.48,0,0,0,3.76,0,3.93,3.93,0,0,0,.74-2.61,3.69,3.69,0,0,0-.75-2.51,2.38,2.38,0,0,0-1.87-.85,2.42,2.42,0,0,0-1.88.84A3.81,3.81,0,0,0,106,106.76Z"/><path class="cls-3" d="M120.47,111.22v-1.31a3.27,3.27,0,0,1-2.83,1.51,3.66,3.66,0,0,1-1.48-.3,2.47,2.47,0,0,1-1-.76,2.77,2.77,0,0,1-.47-1.12,7.92,7.92,0,0,1-.09-1.41V102.3h1.51v5a8.93,8.93,0,0,0,.09,1.59,1.61,1.61,0,0,0,.61.94,1.84,1.84,0,0,0,1.14.34,2.54,2.54,0,0,0,1.28-.35,1.93,1.93,0,0,0,.84-1,4.64,4.64,0,0,0,.25-1.74V102.3h1.51v8.92Z"/><path class="cls-3" d="M129.19,111.22V98.9h5.46a7.33,7.33,0,0,1,2.51.33,2.79,2.79,0,0,1,1.37,1.18,3.48,3.48,0,0,1,.51,1.85,3.07,3.07,0,0,1-.85,2.21,4.35,4.35,0,0,1-2.62,1.15,4,4,0,0,1,1,.61,8.1,8.1,0,0,1,1.35,1.64l2.15,3.35H138l-1.63-2.56c-.48-.74-.87-1.31-1.18-1.7a3.49,3.49,0,0,0-.83-.82,2.31,2.31,0,0,0-.74-.33,4.87,4.87,0,0,0-.91-.06h-1.89v5.47Zm1.63-6.88h3.5a5.36,5.36,0,0,0,1.75-.23,1.9,1.9,0,0,0,1-.74,2,2,0,0,0,.33-1.11,1.8,1.8,0,0,0-.64-1.43,2.93,2.93,0,0,0-2-.57h-3.9Z"/><path class="cls-3" d="M147.51,108.35l1.56.19a3.8,3.8,0,0,1-1.37,2.13,4.66,4.66,0,0,1-5.66-.45,4.76,4.76,0,0,1-1.14-3.39,4.89,4.89,0,0,1,1.16-3.49,3.91,3.91,0,0,1,3-1.25,3.83,3.83,0,0,1,2.93,1.22,4.89,4.89,0,0,1,1.13,3.43c0,.09,0,.23,0,.4h-6.65a3.41,3.41,0,0,0,.83,2.26,2.48,2.48,0,0,0,1.87.78,2.35,2.35,0,0,0,1.42-.44A2.93,2.93,0,0,0,147.51,108.35Zm-5-2.45h5a3,3,0,0,0-.58-1.69,2.31,2.31,0,0,0-1.87-.87,2.38,2.38,0,0,0-1.75.7A2.75,2.75,0,0,0,142.54,105.9Z"/><path class="cls-3" d="M156.66,114.64v-4.37a2.61,2.61,0,0,1-1,.82,2.87,2.87,0,0,1-1.35.33,3.53,3.53,0,0,1-2.73-1.27,5,5,0,0,1-1.15-3.48,6,6,0,0,1,.47-2.41,3.5,3.5,0,0,1,1.35-1.62,3.68,3.68,0,0,1,2-.55,3,3,0,0,1,2.6,1.4V102.3h1.36v12.34ZM152,106.73a4,4,0,0,0,.72,2.59,2.2,2.2,0,0,0,1.73.86,2.13,2.13,0,0,0,1.66-.82,3.76,3.76,0,0,0,.7-2.49,4.16,4.16,0,0,0-.73-2.68,2.19,2.19,0,0,0-1.73-.9,2.1,2.1,0,0,0-1.67.83A4.08,4.08,0,0,0,152,106.73Z"/><path class="cls-3" d="M166.39,111.22v-1.31a3.27,3.27,0,0,1-2.83,1.51,3.66,3.66,0,0,1-1.48-.3,2.47,2.47,0,0,1-1-.76,2.92,2.92,0,0,1-.47-1.12,7.92,7.92,0,0,1-.09-1.41V102.3H162v5a8.93,8.93,0,0,0,.09,1.59,1.61,1.61,0,0,0,.61.94,1.86,1.86,0,0,0,1.14.34,2.54,2.54,0,0,0,1.28-.35,1.93,1.93,0,0,0,.84-1,4.64,4.64,0,0,0,.25-1.74V102.3h1.51v8.92Z"/><path class="cls-3" d="M176.22,108.35l1.56.19a3.8,3.8,0,0,1-1.37,2.13,4.65,4.65,0,0,1-5.65-.45,4.72,4.72,0,0,1-1.15-3.39,4.89,4.89,0,0,1,1.16-3.49,3.91,3.91,0,0,1,3-1.25,3.83,3.83,0,0,1,2.92,1.22,4.84,4.84,0,0,1,1.13,3.43v.4h-6.66a3.46,3.46,0,0,0,.83,2.26,2.48,2.48,0,0,0,1.87.78,2.33,2.33,0,0,0,1.42-.44A2.93,2.93,0,0,0,176.22,108.35Zm-5-2.45h5a3.09,3.09,0,0,0-.57-1.69,2.33,2.33,0,0,0-1.88-.87,2.38,2.38,0,0,0-1.75.7A2.74,2.74,0,0,0,171.26,105.9Z"/><path class="cls-3" d="M179.08,108.56l1.49-.24a2.1,2.1,0,0,0,.71,1.38,2.44,2.44,0,0,0,1.61.48,2.3,2.3,0,0,0,1.54-.43,1.25,1.25,0,0,0,.51-1,.93.93,0,0,0-.45-.81,7,7,0,0,0-1.55-.51,13.39,13.39,0,0,1-2.3-.73,2.22,2.22,0,0,1-1-.85,2.25,2.25,0,0,1-.33-1.19,2.34,2.34,0,0,1,.27-1.11,2.42,2.42,0,0,1,.75-.84,3.07,3.07,0,0,1,1-.45,4.61,4.61,0,0,1,1.31-.18,5.17,5.17,0,0,1,1.84.31,2.44,2.44,0,0,1,1.17.82,3,3,0,0,1,.52,1.38l-1.47.2a1.66,1.66,0,0,0-.59-1.08,2.18,2.18,0,0,0-1.36-.38,2.46,2.46,0,0,0-1.49.34,1,1,0,0,0-.45.81.8.8,0,0,0,.19.53,1.24,1.24,0,0,0,.58.4c.15.06.59.19,1.33.39a17.87,17.87,0,0,1,2.24.7,2.27,2.27,0,0,1,1,.79,2.24,2.24,0,0,1,.36,1.3,2.55,2.55,0,0,1-.44,1.42,2.92,2.92,0,0,1-1.27,1,4.75,4.75,0,0,1-1.89.36,4.2,4.2,0,0,1-2.65-.72A3.36,3.36,0,0,1,179.08,108.56Z"/><path class="cls-3" d="M191.59,109.87l.22,1.33a5.69,5.69,0,0,1-1.14.14,2.63,2.63,0,0,1-1.28-.26,1.51,1.51,0,0,1-.64-.69,5.53,5.53,0,0,1-.18-1.78v-5.14h-1.11V102.3h1.11v-2.21l1.5-.91v3.12h1.52v1.17h-1.52v5.22a2.71,2.71,0,0,0,.08.83.63.63,0,0,0,.26.3,1,1,0,0,0,.52.11A4.83,4.83,0,0,0,191.59,109.87Z"/><path class="cls-3" d="M199.18,108.35l1.56.19a3.86,3.86,0,0,1-1.37,2.13,4.15,4.15,0,0,1-2.55.75,4.11,4.11,0,0,1-3.11-1.2,4.77,4.77,0,0,1-1.15-3.39,4.93,4.93,0,0,1,1.16-3.49,3.94,3.94,0,0,1,3-1.25,3.85,3.85,0,0,1,2.93,1.22,4.89,4.89,0,0,1,1.13,3.43c0,.09,0,.23,0,.4h-6.65a3.41,3.41,0,0,0,.83,2.26,2.48,2.48,0,0,0,1.86.78,2.31,2.31,0,0,0,1.42-.44A2.88,2.88,0,0,0,199.18,108.35Zm-5-2.45h5a2.94,2.94,0,0,0-.57-1.69,2.31,2.31,0,0,0-1.87-.87,2.37,2.37,0,0,0-1.75.7A2.71,2.71,0,0,0,194.21,105.9Z"/><path class="cls-3" d="M208.43,111.22v-1.13a2.78,2.78,0,0,1-2.5,1.33,3.45,3.45,0,0,1-2-.59,3.78,3.78,0,0,1-1.38-1.64,5.63,5.63,0,0,1-.5-2.42,6.34,6.34,0,0,1,.45-2.43,3.59,3.59,0,0,1,1.33-1.67,3.65,3.65,0,0,1,2-.58,3,3,0,0,1,1.43.34,3.18,3.18,0,0,1,1,.89V98.9h1.5v12.32Zm-4.78-4.45a3.89,3.89,0,0,0,.72,2.56,2.17,2.17,0,0,0,1.71.85,2.13,2.13,0,0,0,1.68-.81,3.76,3.76,0,0,0,.69-2.48,4.2,4.2,0,0,0-.7-2.69,2.17,2.17,0,0,0-1.74-.85,2.1,2.1,0,0,0-1.69.82A4.07,4.07,0,0,0,203.65,106.77Z"/><path class="cls-3" d="M226,106.9l1.63.41a5.5,5.5,0,0,1-1.84,3.07,5.1,5.1,0,0,1-3.26,1.05,5.9,5.9,0,0,1-3.24-.81,5,5,0,0,1-1.89-2.35,8.28,8.28,0,0,1-.66-3.3,7.3,7.3,0,0,1,.74-3.36,5.12,5.12,0,0,1,2.09-2.18,6.19,6.19,0,0,1,3-.74,5,5,0,0,1,3.11.94,4.88,4.88,0,0,1,1.75,2.65l-1.6.38a3.79,3.79,0,0,0-1.25-2,3.27,3.27,0,0,0-2-.61,4,4,0,0,0-2.38.68,3.62,3.62,0,0,0-1.34,1.82,7.36,7.36,0,0,0-.39,2.37,7.59,7.59,0,0,0,.46,2.74,3.46,3.46,0,0,0,1.43,1.76,4,4,0,0,0,2.09.58,3.56,3.56,0,0,0,2.32-.79A4,4,0,0,0,226,106.9Z"/><path class="cls-3" d="M228.86,106.76a4.58,4.58,0,0,1,1.37-3.67,4.13,4.13,0,0,1,2.81-1,4,4,0,0,1,3,1.21,4.57,4.57,0,0,1,1.17,3.33,6,6,0,0,1-.52,2.71,3.71,3.71,0,0,1-1.5,1.54,4.44,4.44,0,0,1-2.16.54,4,4,0,0,1-3-1.2A4.8,4.8,0,0,1,228.86,106.76Zm1.55,0a3.76,3.76,0,0,0,.75,2.56,2.47,2.47,0,0,0,3.75,0,3.87,3.87,0,0,0,.75-2.61,3.69,3.69,0,0,0-.75-2.51,2.38,2.38,0,0,0-1.87-.85,2.41,2.41,0,0,0-1.88.84A3.81,3.81,0,0,0,230.41,106.76Z"/><path class="cls-3" d="M244.84,111.22v-1.31a3.27,3.27,0,0,1-2.83,1.51,3.66,3.66,0,0,1-1.48-.3,2.58,2.58,0,0,1-1-.76,2.91,2.91,0,0,1-.46-1.12,7.92,7.92,0,0,1-.09-1.41V102.3h1.51v5a8.93,8.93,0,0,0,.09,1.59,1.61,1.61,0,0,0,.61.94,1.84,1.84,0,0,0,1.14.34,2.54,2.54,0,0,0,1.28-.35,1.93,1.93,0,0,0,.84-1,4.64,4.64,0,0,0,.25-1.74V102.3h1.51v8.92Z"/><path class="cls-3" d="M248.53,111.22V98.9H250v12.32Z"/><path class="cls-3" d="M258.17,111.22v-1.13a2.75,2.75,0,0,1-2.49,1.33,3.48,3.48,0,0,1-2-.59,3.91,3.91,0,0,1-1.38-1.64,5.62,5.62,0,0,1-.49-2.42,6.53,6.53,0,0,1,.44-2.43,3.55,3.55,0,0,1,1.34-1.67,3.62,3.62,0,0,1,2-.58,2.95,2.95,0,0,1,2.46,1.23V98.9h1.51v12.32Zm-4.78-4.45a3.89,3.89,0,0,0,.72,2.56,2.2,2.2,0,0,0,1.71.85,2.13,2.13,0,0,0,1.68-.81,3.71,3.71,0,0,0,.7-2.48,4.2,4.2,0,0,0-.71-2.69,2.17,2.17,0,0,0-1.74-.85,2.08,2.08,0,0,0-1.68.82A4.07,4.07,0,0,0,253.39,106.77Z"/><path class="cls-3" d="M266.91,111.22V98.9h1.68l6.46,9.67V98.9h1.57v12.32H275l-6.47-9.68v9.68Z"/><path class="cls-3" d="M278.6,106.76a4.59,4.59,0,0,1,1.38-3.67,4.12,4.12,0,0,1,2.81-1,4,4,0,0,1,3,1.21,4.57,4.57,0,0,1,1.17,3.33,5.83,5.83,0,0,1-.52,2.71,3.65,3.65,0,0,1-1.5,1.54,4.43,4.43,0,0,1-2.15.54,4,4,0,0,1-3-1.2A4.81,4.81,0,0,1,278.6,106.76Zm1.56,0a3.76,3.76,0,0,0,.74,2.56,2.41,2.41,0,0,0,1.89.86,2.39,2.39,0,0,0,1.87-.86,3.87,3.87,0,0,0,.75-2.61,3.69,3.69,0,0,0-.75-2.51,2.51,2.51,0,0,0-3.76,0A3.81,3.81,0,0,0,280.16,106.76Z"/><path class="cls-3" d="M292,109.87l.21,1.33a5.52,5.52,0,0,1-1.14.14,2.59,2.59,0,0,1-1.27-.26,1.46,1.46,0,0,1-.64-.69,5.17,5.17,0,0,1-.19-1.78v-5.14H287.9V102.3H289v-2.21l1.51-.91v3.12H292v1.17h-1.52v5.22a2.84,2.84,0,0,0,.07.83.71.71,0,0,0,.27.3,1,1,0,0,0,.51.11A5,5,0,0,0,292,109.87Z"/><path class="cls-3" d="M298.42,111.22V98.9H303a5.7,5.7,0,0,1,2.27.38,2.82,2.82,0,0,1,1.33,1.15,3,3,0,0,1,.49,1.62,2.77,2.77,0,0,1-.43,1.49,3.19,3.19,0,0,1-1.29,1.13,3.19,3.19,0,0,1,1.71,1.11,3,3,0,0,1,.6,1.87,3.65,3.65,0,0,1-.36,1.61,3.11,3.11,0,0,1-.9,1.14,3.65,3.65,0,0,1-1.35.61,8.09,8.09,0,0,1-2,.21Zm1.63-7.14h2.67a5.63,5.63,0,0,0,1.55-.15,1.67,1.67,0,0,0,.94-.61,1.74,1.74,0,0,0,.31-1.07,2,2,0,0,0-.29-1.08,1.46,1.46,0,0,0-.84-.64,6.78,6.78,0,0,0-1.88-.18h-2.46Zm0,5.69h3.07a6.88,6.88,0,0,0,1.11-.06,2.67,2.67,0,0,0,.94-.34,1.78,1.78,0,0,0,.62-.68,2.19,2.19,0,0,0,.25-1,2,2,0,0,0-.36-1.2,1.79,1.79,0,0,0-1-.71,5.88,5.88,0,0,0-1.8-.21h-2.85Z"/><path class="cls-3" d="M315.88,108.35l1.57.19a3.91,3.91,0,0,1-1.37,2.13,4.16,4.16,0,0,1-2.56.75,4.08,4.08,0,0,1-3.1-1.2,4.72,4.72,0,0,1-1.15-3.39,4.93,4.93,0,0,1,1.16-3.49,3.93,3.93,0,0,1,3-1.25,3.81,3.81,0,0,1,2.92,1.22,4.85,4.85,0,0,1,1.14,3.43c0,.09,0,.23,0,.4h-6.66a3.47,3.47,0,0,0,.84,2.26,2.46,2.46,0,0,0,1.86.78,2.31,2.31,0,0,0,1.42-.44A2.93,2.93,0,0,0,315.88,108.35Zm-5-2.45h5a3.09,3.09,0,0,0-.57-1.69,2.32,2.32,0,0,0-1.87-.87,2.41,2.41,0,0,0-1.76.7A2.74,2.74,0,0,0,310.92,105.9Z"/><path class="cls-3" d="M324.4,111.22V98.9h8.31v1.45H326v3.82h5.79v1.45H326v5.6Z"/><path class="cls-3" d="M334.08,106.76a4.58,4.58,0,0,1,1.37-3.67,4.13,4.13,0,0,1,2.81-1,4,4,0,0,1,3,1.21,4.57,4.57,0,0,1,1.17,3.33,6,6,0,0,1-.52,2.71,3.71,3.71,0,0,1-1.5,1.54,4.44,4.44,0,0,1-2.16.54,4,4,0,0,1-3-1.2A4.8,4.8,0,0,1,334.08,106.76Zm1.55,0a3.76,3.76,0,0,0,.75,2.56,2.47,2.47,0,0,0,3.75,0,3.87,3.87,0,0,0,.75-2.61,3.69,3.69,0,0,0-.75-2.51,2.5,2.5,0,0,0-3.75,0A3.81,3.81,0,0,0,335.63,106.76Z"/><path class="cls-3" d="M350.06,111.22v-1.31a3.27,3.27,0,0,1-2.83,1.51,3.66,3.66,0,0,1-1.48-.3,2.51,2.51,0,0,1-1-.76,2.91,2.91,0,0,1-.46-1.12,7.92,7.92,0,0,1-.09-1.41V102.3h1.51v5a8.93,8.93,0,0,0,.09,1.59,1.61,1.61,0,0,0,.61.94,1.84,1.84,0,0,0,1.14.34,2.54,2.54,0,0,0,1.28-.35,1.93,1.93,0,0,0,.84-1,4.64,4.64,0,0,0,.25-1.74V102.3h1.51v8.92Z"/><path class="cls-3" d="M353.78,111.22V102.3h1.36v1.26a3.21,3.21,0,0,1,2.84-1.47,3.76,3.76,0,0,1,1.48.29,2.42,2.42,0,0,1,1,.76,3.05,3.05,0,0,1,.47,1.12,9.5,9.5,0,0,1,.08,1.47v5.49h-1.51v-5.43a4,4,0,0,0-.18-1.38,1.42,1.42,0,0,0-.62-.73,2,2,0,0,0-1.06-.27A2.46,2.46,0,0,0,356,104a3.05,3.05,0,0,0-.7,2.33v4.87Z"/><path class="cls-3" d="M369.14,111.22v-1.13a2.76,2.76,0,0,1-2.49,1.33,3.45,3.45,0,0,1-2-.59,3.84,3.84,0,0,1-1.38-1.64,5.63,5.63,0,0,1-.5-2.42,6.34,6.34,0,0,1,.45-2.43,3.55,3.55,0,0,1,1.34-1.67,3.6,3.6,0,0,1,2-.58,3,3,0,0,1,1.43.34,3.08,3.08,0,0,1,1,.89V98.9h1.5v12.32Zm-4.78-4.45a3.89,3.89,0,0,0,.72,2.56,2.17,2.17,0,0,0,1.71.85,2.13,2.13,0,0,0,1.68-.81,3.76,3.76,0,0,0,.7-2.48,4.2,4.2,0,0,0-.71-2.69,2.17,2.17,0,0,0-1.74-.85,2.08,2.08,0,0,0-1.68.82A4.07,4.07,0,0,0,364.36,106.77Z"/><path class="cls-3" d="M373.35,111.22V109.5h1.72v1.72Z"/><path class="cls-4" d="M168.46,167.21l-23.7-37.89s-18.52,4-17.62,41.46Z"/><path class="cls-2" d="M158.84,169.31l-15-29.19s-13.83,8.59-13.09,30.35Z"/><path class="cls-5" d="M151.42,164.71s-.94-11.48-11.49-13.6l4.06,7.6s-2.29-1.42-6.71-.8c0,0,5.12,4.06,5.48,8.43a7.05,7.05,0,0,0-2.3-7.61s4.24,1.21,5.12,2.8c0,0,0-4.77-2.82-7.6C142.76,153.93,148.41,156.58,151.42,164.71Z"/><path class="cls-4" d="M223.87,167.21l23.7-37.89s18.52,4,17.62,41.46Z"/><path class="cls-2" d="M233.49,169.31l15-29.19s13.83,8.59,13.09,30.35Z"/><path class="cls-5" d="M240.91,164.71s.94-11.48,11.49-13.6l-4.06,7.6s2.3-1.42,6.71-.8c0,0-5.12,4.06-5.48,8.43a7.05,7.05,0,0,1,2.3-7.61s-4.24,1.21-5.12,2.8c0,0,0-4.77,2.82-7.6C249.57,153.93,243.92,156.58,240.91,164.71Z"/><path class="cls-5" d="M127.36,170.78S80.54,238.55,89.46,257,195.84,366.35,195.84,366.35s107.8-105.41,107.8-127.92-38.45-67.65-38.45-67.65S189.84,155.3,127.36,170.78Z"/><path class="cls-5" d="M97.73,412.75S35.26,359.09,96.6,223.6c21.71-48,188.26-35.59,199.36-9.34,55.3,130.83,7.68,198.49,7.68,198.49Z"/><path class="cls-4" d="M96.59,223.62S80.12,435.43,322.69,334.26c0,0,2.8,45.07-19.05,78.49H89.46S40.92,335.65,96.59,223.62Z"/><polygon class="cls-6" points="195.47 200.71 195.47 243.88 186.36 261.31 198.16 246.42 208.78 261.31 199.78 242.29 198.16 199.18 195.47 200.71"/><path class="cls-7" d="M265.59,314.45s5.86,38.94-10,51.9a96,96,0,0,0,0-21.35s-9.86,29.91-39.77,34.95c0,0,20.78,6.29,37.47-24.88,0,0,1.26,14.49,0,19.21C253.31,374.28,277.24,359.48,265.59,314.45Z"/><path class="cls-7" d="M255,249.52s4.1,39.16-12.31,51.4a96,96,0,0,0,1-21.34s-11.2,29.44-41.31,33.13c0,0,20.48,7.22,38.55-23.17,0,0,.61,14.53-.86,19.19C240,308.73,264.57,295,255,249.52Z"/><path class="cls-7" d="M121.64,314.45s-5.86,38.94,10,51.9a95.32,95.32,0,0,1,0-21.35s9.86,29.91,39.77,34.95c0,0-20.78,6.29-37.47-24.88,0,0-1.26,14.49,0,19.21C133.92,374.28,110,359.48,121.64,314.45Z"/><path class="cls-7" d="M104.65,252s-24.8,37.9-18,57.92a135.71,135.71,0,0,1,10.89-22.12s-6.91,35.09,15.82,52.75c0,0-20.79-2.12-19-41.36,0,0-8.45,14.48-9.79,19.9C84.54,319.13,71.84,293.84,104.65,252Z"/><path class="cls-7" d="M141.16,268.09s15.17,33.06,46.6,46l-18.32-23s26.57,18.24,45.32,9.37c0,0-15.73,12.27-34.1-1l10.93,18.75S154.43,309.35,141.16,268.09Z"/><path class="cls-4" d="M94.17,412.66s13.41-72.1-27.83-86.36C35.14,315.5,20,278.44,49.87,255.77c0,0-65.32,7.25-34.08,87.18L2.73,326.3S-24.67,416.05,94.17,412.66Z"/><path class="cls-7" d="M26.71,296.32s-5.86,38.94,10,51.9a96.13,96.13,0,0,1,0-21.36s9.86,29.92,39.77,34.95c0,0-20.78,6.3-37.47-24.87,0,0-1.26,14.48,0,19.21C39,356.15,15.06,341.35,26.71,296.32Z"/><path class="cls-6" d="M225.39,237.69s-17.3-42.95-31.53-39.34c-13.51,3.42-26.92,40.71-26.92,40.71s13.53-46.82,29.87-45.85S225.39,237.69,225.39,237.69Z"/><polygon class="cls-6" points="187.26 173.12 186.58 192.03 133.42 192.03 184.22 189.31 187.26 173.12"/><polygon class="cls-6" points="205.07 173.12 205.75 192.03 258.91 192.03 208.11 189.31 205.07 173.12"/><path class="cls-2" d="M187.23,197.88s5.41,14.24,9.68,13.65c5.4-.75,9.11-13.36,9.11-13.36S197.57,186,187.23,197.88Z"/><path class="cls-5" d="M195.37,208.41s-.4-8.33-3.78-8.33A18.39,18.39,0,0,1,195.37,208.41Z"/><path class="cls-5" d="M197.57,208.41s.39-8.33,3.78-8.33A18.39,18.39,0,0,0,197.57,208.41Z"/><path class="cls-8" d="M130.68,194.74h50.81s-6.13,42.28-25.41,36.69S130.68,194.74,130.68,194.74Z"/><path class="cls-9" d="M130.68,194.85h50.81s-6.13,31.36-25.41,26.63S130.68,194.85,130.68,194.85Z"/><path class="cls-6" d="M143.27,194.85h31s-3.4,16-15.52,16.27C146.07,211.42,143.27,194.85,143.27,194.85Z"/><path class="cls-5" d="M174.92,200.41a2.62,2.62,0,1,1-2.62-2.62A2.61,2.61,0,0,1,174.92,200.41Z"/><path class="cls-8" d="M261.65,194.74H210.84s6.88,41.94,26.15,36.35S261.65,194.74,261.65,194.74Z"/><path class="cls-9" d="M261.65,194.85H210.84s6.13,31.36,25.41,26.63S261.65,194.85,261.65,194.85Z"/><path class="cls-6" d="M249.06,194.85H218s3.4,16,15.52,16.27C246.26,211.42,249.06,194.85,249.06,194.85Z"/><path class="cls-5" d="M243,200.41a2.62,2.62,0,1,0,2.62-2.62A2.62,2.62,0,0,0,243,200.41Z"/><path class="cls-10" d="M366,275.64s-6.12,51.94-55,54.31l-2-80.43s18.91,41.89,37.14,3.9C346.1,253.42,365.74,262.18,366,275.64Z"/><polygon class="cls-6" points="342.58 233.79 346.1 301.44 338.4 301.44 336.04 233.79 342.58 233.79"/><path class="cls-10" d="M346,250.66s-21.54.88-18.11,17.6S343,301,356,293,372.62,253,346,250.66Z"/><polygon class="cls-2" points="316.82 239.07 292.85 197.54 316.82 156.01 364.78 156.01 388.76 197.54 364.78 239.07 316.82 239.07"/><path class="cls-11" d="M312.92,171.06a52.16,52.16,0,0,1,1-10.06l-21.09,36.54,24,41.53h47.95L375,221.42a51.49,51.49,0,0,1-62-50.36Z"/><path class="cls-12" d="M362.62,234.71H319l-21.84-37.17L319,160.37h43.64l21.85,37.17Zm-42.11-2.66H361.1l20.28-34.51L361.1,163H320.51l-20.28,34.5Z"/><path class="cls-3" d="M321.82,202.44l2.59.32a6.28,6.28,0,0,1-2.27,3.52,7.67,7.67,0,0,1-9.38-.74,7.81,7.81,0,0,1-1.9-5.61,8.2,8.2,0,0,1,1.92-5.8,6.52,6.52,0,0,1,5-2.06,6.36,6.36,0,0,1,4.85,2,8.05,8.05,0,0,1,1.88,5.69c0,.15,0,.37,0,.67h-11a5.65,5.65,0,0,0,1.38,3.73,4.11,4.11,0,0,0,3.09,1.3,3.88,3.88,0,0,0,2.36-.73A4.77,4.77,0,0,0,321.82,202.44Zm-8.23-4.06h8.26a5,5,0,0,0-1-2.8,3.85,3.85,0,0,0-3.1-1.45,4,4,0,0,0-2.91,1.16A4.57,4.57,0,0,0,313.59,198.38Z"/><path class="cls-3" d="M327.53,207.2V192.41h2.26v2.24a6.22,6.22,0,0,1,1.6-2.08,2.79,2.79,0,0,1,1.61-.5,4.87,4.87,0,0,1,2.57.81l-.86,2.33a3.62,3.62,0,0,0-1.84-.55,2.4,2.4,0,0,0-1.48.5,2.76,2.76,0,0,0-.93,1.37,9.74,9.74,0,0,0-.42,2.93v7.74Z"/><path class="cls-3" d="M337,207.2V192.41h2.25v2.24a6.22,6.22,0,0,1,1.6-2.08,2.81,2.81,0,0,1,1.61-.5,4.87,4.87,0,0,1,2.57.81l-.86,2.33a3.62,3.62,0,0,0-1.84-.55,2.4,2.4,0,0,0-1.48.5,2.76,2.76,0,0,0-.93,1.37,9.74,9.74,0,0,0-.42,2.93v7.74Z"/><path class="cls-3" d="M345.63,199.81c0-2.75.76-4.77,2.29-6.09a6.86,6.86,0,0,1,4.65-1.65,6.66,6.66,0,0,1,5,2,7.62,7.62,0,0,1,1.93,5.53,9.81,9.81,0,0,1-.85,4.49,6,6,0,0,1-2.5,2.54,7.29,7.29,0,0,1-3.57.91,6.64,6.64,0,0,1-5-2A7.92,7.92,0,0,1,345.63,199.81Zm2.58,0a6.27,6.27,0,0,0,1.24,4.25,4.12,4.12,0,0,0,6.23,0,6.47,6.47,0,0,0,1.24-4.33,6.14,6.14,0,0,0-1.25-4.16,4.13,4.13,0,0,0-6.22,0A6.23,6.23,0,0,0,348.21,199.81Z"/><path class="cls-3" d="M362.41,207.2V192.41h2.25v2.24a6.22,6.22,0,0,1,1.6-2.08,2.81,2.81,0,0,1,1.61-.5,4.87,4.87,0,0,1,2.57.81l-.86,2.33a3.62,3.62,0,0,0-1.84-.55,2.4,2.4,0,0,0-1.48.5,2.76,2.76,0,0,0-.93,1.37,9.74,9.74,0,0,0-.42,2.93v7.74Z"/><path class="cls-7" d="M90.81,194.85s31.09,30.43,100.92,24.81C191.73,219.66,125.92,231.16,90.81,194.85Z"/><path class="cls-7" d="M79.54,210.78s43.11,28.28,111.65,10.9C191.19,221.68,119,242.28,79.54,210.78Z"/><path class="cls-7" d="M90.81,233.57s40.59,21,100.95-10C191.76,223.6,134.15,259.51,90.81,233.57Z"/><path class="cls-7" d="M301.52,194.85s-31.09,30.43-100.92,24.81C200.6,219.66,266.41,231.16,301.52,194.85Z"/><path class="cls-7" d="M312.79,210.78s-43.11,28.28-111.65,10.9C201.14,221.68,273.29,242.28,312.79,210.78Z"/><path class="cls-7" d="M301.52,233.57s-40.59,21-100.95-10C200.57,223.6,258.18,259.51,301.52,233.57Z"/><path class="cls-7" d="M293.1,264.08s23,32,14.82,50.73a95.36,95.36,0,0,0-9.75-19s4.9,31.11-19.42,49.26c0,0,21.37-3.89,22-39.25,0,0,7.73,12.31,8.77,17.09C309.5,322.91,324,298.81,293.1,264.08Z"/></g></g></svg>